<svg width="455" height="48" viewBox="0 0 455 48" fill="none" xmlns="http://www.w3.org/2000/svg">
<path d="M236.711 22.2364C236.864 22.3898 236.864 22.5431 236.711 22.6965L224.276 39.7188C224.123 39.8722 223.969 40.0255 223.816 39.8722L223.048 39.2588C222.895 39.1054 222.895 38.9521 223.048 38.7987L235.329 21.9297C235.482 21.623 235.636 21.623 235.789 21.623L236.711 22.2364Z" fill="black"/>
<path d="M10.4386 39.1054C9.97806 39.1054 9.82455 39.1054 9.82455 38.1853C9.82455 37.5719 9.97806 37.2652 10.4386 37.2652L11.2061 37.1118C11.8202 36.9585 11.9737 36.8051 11.9737 35.5783L12.1272 28.524C12.1272 24.23 11.9737 23.77 10.5921 23.1566C9.97806 23.0032 9.82455 22.8498 9.82455 22.5431C9.82455 22.0831 10.1316 21.9297 10.8991 21.623C11.6667 21.3163 12.7412 20.8562 13.2017 20.5495C14.4298 20.0895 15.0439 19.6294 15.5044 19.6294C15.9649 19.7827 16.2719 20.0895 16.2719 21.0096V23.6166C16.886 22.3898 17.6535 21.623 18.8816 20.8562C19.8026 20.3962 21.0307 20.0895 22.2588 20.0895C25.0219 20.0895 26.864 21.623 27.4781 23.9233H27.6316C28.2456 22.6965 29.0131 21.623 30.3947 20.8562C31.3158 20.3962 32.6974 20.0895 33.9254 20.0895C36.8421 20.0895 38.5307 21.3163 39.1447 23.77C39.4517 25.3035 39.4517 26.8371 39.4517 29.4441V35.7316C39.4517 36.8051 39.6053 37.1118 40.3728 37.1118L41.1403 37.2652C41.7544 37.2652 41.7544 37.4185 41.7544 38.1853C41.7544 38.9521 41.6009 39.1054 41.1403 39.1054C39.9123 38.9521 38.6842 38.9521 37.6096 38.9521C36.5351 38.9521 34.5395 39.1054 33.3114 39.1054C32.8509 39.1054 32.6974 38.9521 32.6974 38.1853C32.6974 37.4185 32.8509 37.2652 33.4649 37.2652L34.5395 37.1118C35.1535 37.1118 35.307 36.8051 35.307 35.7316V30.2109C35.307 27.7572 35.307 26.2236 34.8465 24.9968C34.386 23.6166 33.3114 22.8498 31.9298 22.8498C30.2412 22.8498 28.0921 24.0767 28.0921 28.3706V35.7316C28.0921 36.8051 28.2456 37.1118 29.0132 37.1118L29.4737 37.2652C30.0877 37.4185 30.0877 37.4185 30.0877 38.1853C30.0877 38.9521 29.9342 39.1054 29.4737 39.1054C28.2456 38.9521 27.0175 38.9521 25.943 38.9521C24.8684 38.9521 23.0263 39.1054 21.9517 39.1054C21.4912 39.1054 21.1842 38.9521 21.1842 38.1853C21.1842 37.4185 21.3377 37.2652 21.9517 37.2652L22.8728 37.1118C23.3333 37.1118 23.6403 36.8051 23.6403 35.7316V30.2109C23.6403 27.7572 23.6403 26.2236 23.1798 24.9968C22.5658 23.6166 21.6447 22.8498 20.2632 22.8498C18.5746 22.8498 16.4254 24.0767 16.4254 28.3706L16.5789 35.5783C16.5789 36.6518 16.5789 36.9585 17.193 37.1118L17.807 37.2652C18.421 37.5719 18.421 37.7252 18.421 38.3387C18.421 39.1054 18.2675 39.4121 17.807 39.2588C16.5789 39.1054 15.9649 39.1054 14.4298 39.1054C12.8947 38.9521 11.6667 39.1054 10.4386 39.1054Z" fill="black"/>
<path d="M64.0132 35.885C64.0132 32.3578 67.5439 30.6709 73.8377 28.8307C73.8377 27.4505 73.9912 26.377 73.9912 25.7636C73.9912 22.6965 72.9167 22.3898 71.5351 22.3898C69.693 22.3898 69.2325 23.3099 68.6184 25.1501C68.3114 26.5303 67.2368 27.2971 66.1623 27.2971C65.0877 27.2971 64.3202 26.5303 64.3202 25.4569C64.3202 24.8434 64.4737 24.23 65.2412 23.4632C66.1623 22.5431 69.2324 20.3961 73.0702 20.3961C76.6009 20.3961 77.9824 21.9297 77.9824 25.6102C77.9824 27.2971 77.8289 29.7508 77.8289 32.8179C77.8289 35.4249 77.9825 36.9584 79.057 36.9584C79.671 36.9584 79.8246 36.8051 80.2851 36.345C80.4386 36.1917 80.5921 36.1917 80.7456 36.1917C81.0526 36.1917 81.3596 36.4984 81.3596 36.9584C81.3596 37.1118 81.2061 37.4185 81.2061 37.5719C80.5921 38.3386 78.9035 40.1789 77.2149 40.1789C75.8333 40.1789 74.7588 39.5655 74.1447 37.4185C72.7632 38.9521 70.614 40.1789 68.1579 40.1789C65.2412 39.7188 64.0132 38.0319 64.0132 35.885ZM70.307 36.9584C71.5351 36.9584 72.9167 35.885 73.8377 35.1182C73.6842 33.738 73.6842 32.6645 73.6842 31.8977C73.6842 31.2843 73.6842 30.8243 73.6842 30.0575C69.693 31.591 68.0044 32.3578 68.0044 34.6581C68.1579 36.4984 69.386 36.9584 70.307 36.9584Z" fill="black"/>
<path d="M105.614 39.1054C105.154 39.1054 105 38.9521 105 38.1853C105 37.4185 105.154 37.2652 105.768 37.2652L106.996 37.1118C107.763 37.1118 107.763 36.6518 107.763 35.885L107.917 28.3706C107.917 24.3834 107.763 24.23 106.382 23.6166C105.768 23.4633 105.614 23.3099 105.614 22.8498C105.614 22.3898 105.768 22.2364 106.689 21.9297C107.456 21.623 108.07 21.3163 108.684 21.0096C109.605 20.5495 110.833 19.6294 111.447 19.6294C111.908 19.6294 112.215 19.9361 112.215 20.8562C112.215 21.4697 112.215 22.5431 112.215 23.77H112.368C114.057 20.7029 115.592 20.0895 117.281 20.0895C118.816 20.0895 120.044 20.7029 120.044 21.9297C120.044 23.1566 119.43 24.5367 118.048 24.5367C117.434 24.5367 116.974 24.3834 116.36 24.0767C116.053 23.9233 115.592 23.6166 114.825 23.6166C113.443 23.6166 112.215 25.6102 112.215 28.3706V35.885C112.215 36.8051 112.215 37.1118 113.443 37.1118L114.518 37.2652C115.132 37.2652 115.285 37.5719 115.285 38.1853C115.285 38.9521 115.132 39.1054 114.671 39.1054C113.596 38.9521 111.447 38.9521 110.373 38.9521C108.991 38.9521 106.842 39.1054 105.614 39.1054Z" fill="black"/>
<path d="M145.987 34.5048L146.14 23.3099H144.605C143.991 23.3099 143.531 23.1565 143.531 22.5431C143.531 22.0831 144.145 21.4696 144.912 20.7029C145.987 19.6294 146.447 19.1693 148.904 15.9489C149.211 15.6422 149.518 15.3354 149.978 15.3354C150.285 15.3354 150.592 15.4888 150.592 15.9489V20.7029C151.82 20.7029 154.43 20.5495 155.811 20.5495C156.425 20.5495 156.579 21.0096 156.272 21.623L155.658 23.0032C155.504 23.3099 155.351 23.4632 154.89 23.4632H150.285V32.3578C150.285 35.885 150.285 37.4185 152.741 37.4185C153.969 37.4185 154.737 36.6517 155.351 36.6517C155.811 36.6517 155.965 36.9585 155.965 37.4185C155.965 37.7252 155.658 38.0319 155.351 38.3386C154.583 38.9521 152.895 39.7188 150.899 39.7188C148.596 39.7188 145.833 38.492 145.987 34.5048Z" fill="black"/>
<path d="M180.066 35.885C180.066 32.3578 183.596 30.6709 189.89 28.8307C189.89 27.4505 190.044 26.377 190.044 25.7636C190.044 22.6965 188.969 22.3898 187.588 22.3898C185.746 22.3898 185.285 23.3099 184.671 25.1501C184.364 26.5303 183.289 27.2971 182.215 27.2971C181.14 27.2971 180.373 26.5303 180.373 25.4569C180.373 24.8434 180.526 24.23 181.294 23.4632C182.215 22.5431 185.285 20.3961 189.123 20.3961C192.654 20.3961 194.035 21.9297 194.035 25.6102C194.035 27.2971 193.882 29.7508 193.882 32.8179C193.882 35.4249 194.035 36.9584 195.11 36.9584C195.724 36.9584 195.877 36.8051 196.338 36.345C196.491 36.1917 196.645 36.1917 196.798 36.1917C197.105 36.1917 197.412 36.4984 197.412 36.9584C197.412 37.1118 197.259 37.4185 197.259 37.5719C196.645 38.3386 194.956 40.1789 193.268 40.1789C191.886 40.1789 190.811 39.5655 190.197 37.4185C188.816 38.9521 186.667 40.1789 184.211 40.1789C181.294 39.7188 180.066 38.0319 180.066 35.885ZM186.36 36.9584C187.588 36.9584 188.969 35.885 189.89 35.1182C189.737 33.738 189.737 32.6645 189.737 31.8977C189.737 31.2843 189.737 30.8243 189.737 30.0575C185.746 31.591 184.057 32.3578 184.057 34.6581C184.211 36.4984 185.439 36.9584 186.36 36.9584Z" fill="black"/>
<path d="M268.026 37.4185C266.952 38.7987 266.338 39.2588 265.877 39.2588C265.417 39.2588 265.11 39.1054 265.11 38.0319C265.11 35.5783 265.263 29.7508 265.263 26.6837V15.4888C265.263 12.4217 265.263 12.2684 263.882 11.6549C262.807 11.1949 262.346 11.0415 262.346 10.5815C262.346 9.96804 262.961 9.81469 263.421 9.66133C264.803 9.20127 266.031 8.89456 267.719 8.12779C268.026 7.97443 268.487 7.82108 268.794 7.82108C269.254 7.82108 269.561 7.97443 269.561 8.7412C269.561 10.2747 269.254 11.6549 269.254 21.7763C270.636 20.5495 272.478 20.0894 274.32 20.0894C279.079 20.0894 283.07 23.77 283.07 29.2907C283.07 36.345 277.697 39.7188 273.399 39.7188C271.711 39.7188 269.561 39.5655 268.026 37.4185ZM272.785 22.3898C271.097 22.3898 269.101 23.4632 269.101 24.9968V32.9712C269.101 36.1917 270.943 37.7252 273.246 37.7252C276.623 37.7252 278.465 34.8115 278.465 31.2843C278.465 24.8434 275.548 22.3898 272.785 22.3898Z" fill="black"/>
<path d="M307.325 30.0575C307.325 25.1501 310.548 20.2428 316.689 20.2428C321.601 20.2428 324.364 24.5367 324.364 27.6038C324.364 28.3706 323.904 28.6773 323.136 28.6773H311.93C311.93 34.3514 315 37.1118 317.61 37.1118C319.605 37.1118 321.14 36.1917 322.522 34.9648C323.136 34.5048 323.443 34.0447 323.904 34.0447C324.364 34.0447 324.671 34.3514 324.671 34.8115C324.671 35.4249 324.211 36.0383 323.75 36.6517C322.675 37.8786 320.526 39.8722 316.689 39.8722C310.548 39.7188 307.325 35.4249 307.325 30.0575ZM318.838 26.5303C319.452 26.5303 319.605 26.377 319.605 25.6102C319.605 24.0767 318.377 22.0831 315.921 22.0831C313.772 22.0831 312.083 23.9233 311.93 26.837L318.838 26.5303Z" fill="black"/>
<path d="M348.925 39.1054C348.465 39.1054 348.311 39.1054 348.311 38.1853C348.311 37.5719 348.618 37.2652 348.925 37.2652L349.539 37.1118C350.154 36.9585 350.307 36.8051 350.307 35.5783L350.461 28.524C350.461 24.3834 350.461 23.77 348.772 23.1566C348.311 23.0032 348.158 22.8498 348.158 22.5431C348.158 22.0831 348.618 21.9297 349.386 21.623C350.154 21.3163 351.228 20.7029 351.689 20.5495C352.917 19.9361 353.224 19.6294 353.684 19.6294C354.298 19.6294 354.452 19.9361 354.452 20.8562V23.3099C355.066 22.0831 355.987 21.3163 357.215 20.7029C358.136 20.2428 359.364 19.9361 360.592 19.9361C363.202 19.9361 365.197 21.4696 365.811 23.77C366.118 25.3035 366.272 26.6837 366.272 29.2907V35.5783C366.272 36.6518 366.425 36.9585 367.039 36.9585L367.807 37.1118C368.421 37.1118 368.575 37.2652 368.575 38.0319C368.575 38.7987 368.421 38.9521 367.807 38.9521C366.579 38.7987 365.351 38.7987 364.276 38.7987C363.202 38.7987 361.513 38.9521 360.285 38.9521C359.825 38.9521 359.518 38.7987 359.518 38.0319C359.518 37.2652 359.825 37.1118 360.285 37.1118L361.206 36.9585C361.974 36.8051 361.974 36.6518 361.974 35.5783V30.0575C361.974 27.6038 361.974 26.0703 361.513 24.8435C361.053 23.4633 359.825 22.6965 358.443 22.6965C356.754 22.6965 354.452 23.9233 354.605 28.2173L354.759 35.4249C354.759 36.4984 354.759 36.8051 355.373 36.9585L355.987 37.1118C356.601 37.2652 356.601 37.4185 356.601 38.0319C356.601 38.7987 356.447 39.1054 355.987 38.9521C354.759 38.7987 354.298 38.7987 352.61 38.7987C351.075 38.9521 350.154 39.1054 348.925 39.1054Z" fill="black"/>
<path d="M391.754 30.0575C391.754 25.1501 394.978 20.2428 401.118 20.2428C406.031 20.2428 408.794 24.5367 408.794 27.6038C408.794 28.3706 408.333 28.6773 407.566 28.6773H396.36C396.36 34.3514 399.43 37.1118 402.039 37.1118C404.035 37.1118 405.57 36.1917 406.952 34.9648C407.566 34.5048 407.873 34.0447 408.333 34.0447C408.794 34.0447 409.101 34.3514 409.101 34.8115C409.101 35.4249 408.64 36.0383 408.18 36.6517C407.105 37.8786 404.956 39.8722 401.118 39.8722C394.978 39.7188 391.754 35.4249 391.754 30.0575ZM403.421 26.5303C404.035 26.5303 404.189 26.377 404.189 25.6102C404.189 24.0767 402.961 22.0831 400.504 22.0831C398.355 22.0831 396.667 23.9233 396.513 26.837L403.421 26.5303Z" fill="black"/>
<path d="M434.737 34.5048L434.89 23.3099H433.355C432.741 23.3099 432.281 23.1565 432.281 22.5431C432.281 22.0831 432.895 21.4696 433.662 20.7029C434.737 19.6294 435.197 19.1693 437.654 15.9489C437.961 15.6422 438.268 15.3354 438.728 15.3354C439.035 15.3354 439.342 15.4888 439.342 15.9489V20.7029C440.57 20.7029 443.18 20.5495 444.561 20.5495C445.175 20.5495 445.329 21.0096 445.022 21.623L444.254 23.0032C444.101 23.3099 443.947 23.4632 443.487 23.4632H438.882V32.3578C438.882 35.885 438.882 37.4185 441.338 37.4185C442.566 37.4185 443.333 36.6517 443.947 36.6517C444.408 36.6517 444.561 36.9585 444.561 37.4185C444.561 37.7252 444.408 38.0319 443.947 38.3386C443.18 38.9521 441.491 39.7188 439.496 39.7188C437.347 39.7188 434.583 38.492 434.737 34.5048Z" fill="black"/>
</svg>
